<?xml version="1.0" encoding="utf-8"?>
<!-- Generator: Adobe Illustrator 16.0.0, SVG Export Plug-In . SVG Version: 6.00 Build 0)  -->
<!DOCTYPE svg PUBLIC "-//W3C//DTD SVG 1.1//EN" "http://www.w3.org/Graphics/SVG/1.1/DTD/svg11.dtd">
<svg version="1.1"
	 id="svg3439" xmlns:dc="http://purl.org/dc/elements/1.1/" xmlns:cc="http://creativecommons.org/ns#" xmlns:rdf="http://www.w3.org/1999/02/22-rdf-syntax-ns#" xmlns:svg="http://www.w3.org/2000/svg" xmlns:sodipodi="http://sodipodi.sourceforge.net/DTD/sodipodi-0.dtd" xmlns:inkscape="http://www.inkscape.org/namespaces/inkscape" inkscape:version="0.91 r13725" sodipodi:docname="logo-ia.svg"
	 xmlns="http://www.w3.org/2000/svg" xmlns:xlink="http://www.w3.org/1999/xlink" x="0px" y="0px" width="137px" height="16px"
	 viewBox="0 0 137 16" enable-background="new 0 0 137 16" xml:space="preserve">
<sodipodi:namedview  units="px" id="base" pagecolor="#ffffff" bordercolor="#666666" borderopacity="1.0" inkscape:zoom="7.9195959" inkscape:cx="94.275281" inkscape:cy="11.05397" showgrid="false" borderlayer="true" inkscape:pageshadow="2" inkscape:window-height="1027" inkscape:window-x="1272" inkscape:window-y="-8" inkscape:pageopacity="0.0" inkscape:window-maximized="1" inkscape:window-width="1920" inkscape:document-units="px" inkscape:current-layer="layer1">
	</sodipodi:namedview>
<g id="layer1" transform="translate(0,-1036.3622)" inkscape:label="Livello 1" inkscape:groupmode="layer">
	<g id="surface101574" transform="matrix(0.24654529,0,0,0.24654531,-5.23955,940.6883)">
		<path id="path3450" inkscape:connector-curvature="0" fill="#FFFFFF" d="M35.989,388.544H21.078v64.8h14.911V388.544z"/>
		<path id="path3452" inkscape:connector-curvature="0" fill="#FFFFFF" d="M94.512,453.344v-64.8H79.605v32.284l-20.633-32.284
			H45.129v64.8H60.04v-32.278l20.625,32.278H94.512z"/>
		<path id="path3454" inkscape:connector-curvature="0" fill="#FFFFFF" d="M145.934,401.692v-13.148h-43.207v64.804h14.901v-25.362
			h24.285v-13.145h-24.285v-13.149H145.934z"/>
		<path id="path3456" inkscape:connector-curvature="0" fill="#FFFFFF" d="M196.359,411.516c-0.164-2.234-0.394-4.179-0.687-5.831
			c-0.66-3.668-2.917-7.443-6.789-11.313c-3.872-3.88-9.36-5.829-16.45-5.829c-3.753,0-7.074,0.602-9.928,1.788
			c-2.852,1.204-5.644,3.161-8.352,5.872c-2.707,2.715-4.387,5.813-5.013,9.302c-0.624,3.496-0.929,8.647-0.929,15.44
			c0,6.516,0.317,11.594,0.976,15.262c0.652,3.668,2.919,7.455,6.797,11.328c3.87,3.87,9.344,5.811,16.448,5.811
			c3.587,0,6.765-0.535,9.532-1.632L196.359,411.516z M181.173,409.454c0.374,2.113,0.576,5.943,0.576,11.493
			c0,5.605-0.202,9.447-0.576,11.499c-0.396,2.06-1.212,3.858-2.438,5.419c-1.22,1.553-3.333,2.337-6.302,2.337
			c-1.428,0-2.765-0.293-3.991-0.879c-1.22-0.586-2.228-1.371-2.996-2.337c-0.786-0.966-1.369-2.48-1.747-4.539
			c-0.394-2.052-0.578-5.894-0.578-11.497c0-5.607,0.184-9.451,0.578-11.532c0.378-2.089,0.976-3.64,1.792-4.64
			c0.818-0.996,1.806-1.759,2.969-2.292c1.161-0.523,2.49-0.788,3.973-0.788c1.489,0,2.824,0.265,4.016,0.788
			c1.198,0.535,2.129,1.236,2.785,2.099C180.137,405.711,180.777,407.345,181.173,409.454"/>
		<path id="path3458" inkscape:connector-curvature="0" fill="#35A6E8" d="M245.278,453.344l-22.994-64.8h-11.917l-23.208,64.8
			h16.078l3.129-9.388h19.599l2.953,9.388H245.278z M222.282,430.806h-11.188l5.769-16.9L222.282,430.806z"/>
		<path id="path3460" inkscape:connector-curvature="0" fill="#35A6E8" d="M288.431,453.344v-13.143h-26.257v-51.657h-14.909v64.8
			h42.325H288.431z"/>
		<path id="path3462" inkscape:connector-curvature="0" fill="#35A6E8" d="M335.695,448.341c3.668-3.343,5.502-8.053,5.502-14.129
			c0-3.993-0.76-7.003-2.258-9.011c-1.509-1.992-3.391-3.7-5.664-5.106c1.798-1.204,3.406-2.848,4.84-4.9
			c1.418-2.054,2.151-4.698,2.151-7.93c0-5.69-1.763-10.225-5.272-13.628c-3.505-3.391-8.5-5.094-14.988-5.094h-26.329v64.8h27.691
			C327.254,453.344,332.027,451.684,335.695,448.341 M323.883,404.291c0.978,1.105,1.477,2.42,1.477,3.981
			c0,1.555-0.499,2.888-1.477,3.993c-0.97,1.097-2.527,1.642-4.67,1.642h-10.627v-11.271h10.627
			C321.356,402.633,322.913,403.19,323.883,404.291 M324.779,428.857c1.002,1.204,1.517,2.622,1.517,4.258
			c0,1.699-0.515,3.133-1.517,4.337c-1.01,1.204-2.575,1.806-4.718,1.806h-11.475v-12.212h11.475
			C322.204,427.047,323.769,427.653,324.779,428.857"/>
		<path id="path3464" inkscape:connector-curvature="0" fill="#35A6E8" d="M390.757,453.344v-13.143h-28.305v-13.154h24.281v-13.143
			h-24.281v-12.212h28.305v-13.148H347.55v64.8H390.757z"/>
		<path id="path3466" inkscape:connector-curvature="0" fill="#35A6E8" d="M447.118,453.344l-14.153-26.349
			c2.852-1.481,5.3-3.692,7.336-6.623c2.028-2.935,3.042-6.468,3.042-10.609c0-5.809-1.909-10.798-5.72-14.969
			c-3.814-4.165-9.102-6.25-15.844-6.25h-25.022v64.8h14.913v-23.477h5.585l11.427,23.477H447.118z M426.473,404.746
			c1.311,1.406,1.961,3.056,1.961,4.929c0,1.891-0.65,3.535-1.961,4.945c-1.311,1.406-3.09,2.103-5.316,2.103h-9.487v-14.091h9.487
			C423.384,402.633,425.162,403.34,426.473,404.746"/>
		<path id="path3468" inkscape:connector-curvature="0" fill="#35A6E8" d="M495.549,437.983c0.919-3.082,1.386-7.264,1.386-12.548
			v-8.708h-24.879v13.145h9.32v0.903c0,1.394-0.206,2.686-0.614,3.858c-0.408,1.18-1.216,2.416-2.46,3.668
			c-1.256,1.267-3.482,1.901-6.71,1.901c-2.852,0-4.864-0.753-6.013-2.25c-1.149-1.489-1.909-3.296-2.289-5.411
			c-0.376-2.115-0.555-5.989-0.555-11.594c0-5.607,0.178-9.451,0.543-11.53c0.36-2.089,0.931-3.64,1.691-4.64
			c0.753-0.996,1.668-1.759,2.749-2.293c1.062-0.523,2.297-0.788,3.711-0.788c2.737,0,4.801,0.675,6.203,2.012
			c1.398,1.347,2.444,3.496,3.117,6.441h16.097c-0.848-6.106-3.303-11.224-7.383-15.379c-4.088-4.137-9.914-6.223-17.484-6.223
			c-3.692,0-7.003,0.62-9.887,1.836c-2.891,1.23-5.696,3.179-8.374,5.87c-2.678,2.683-4.333,5.763-4.959,9.259
			c-0.626,3.495-0.935,8.645-0.935,15.438c0,6.514,0.325,11.592,0.974,15.26c0.654,3.668,2.931,7.455,6.805,11.328
			c3.866,3.874,9.332,5.807,16.375,5.807c3.7,0,7.082-0.523,10.148-1.576c3.066-1.062,5.87-2.884,8.374-5.458
			C492.946,443.841,494.622,441.065,495.549,437.983"/>
		<path id="path3470" inkscape:connector-curvature="0" fill="#35A6E8" d="M551.082,453.344v-64.8h-14.909v25.36h-17.706v-25.36
			h-14.901v64.8h14.901v-26.297h17.706v26.297H551.082z"/>
		<path id="path3472" inkscape:connector-curvature="0" fill="#35A6E8" d="M574.206,388.544h-14.913v64.8h14.913V388.544z"/>
	</g>
</g>
</svg>
